<svg xmlns="http://www.w3.org/2000/svg" viewBox="0 0 796.82 502.47"><defs><style>.a{fill:#c9961a;}.b{fill:#1d1d1b;}.c{fill:#3c3c3b;}.d{fill:#d5a940;}</style></defs><polygon class="a" points="1.28 158.4 0 198.53 144.62 198.53 144.62 157.41 1.28 158.4"/><polygon class="b" points="1.28 235.39 144.62 235.39 144.62 277.93 45.14 277.93 45.14 317.63 144.62 317.63 144.62 358.74 0 358.74 0 235.39 1.28 235.39"/><polygon class="b" points="174.39 358.74 253.29 157.41 303.66 157.41 385.65 358.74 329.63 358.43 279.57 198.55 226.06 358.74 174.39 358.74"/><polygon class="a" points="279.31 307.7 247.97 307.7 279.31 358.74 310.65 307.7 279.31 307.7"/><path class="b" d="M697.73,437s-34.24-29.88-80.24-29.88S538.2,432.66,538.2,464s25.18,50.59,50.82,57.57,60.37,15.86,60.37,35.93-50,14.17-62.23,9.93S553,542.79,553,542.79l-22.61,33.79s24.89,31.91,83.65,31.91,83.65-36,83.65-60.69-26.13-45.68-48.34-52.25-62.89-18.15-62.56-34.42,19.09-15.64,35.36-15.64,46.3,21.9,46.3,21.9Z" transform="translate(-113.59 -249.75)"/><polygon class="b" points="603.99 157.41 676.3 269.89 676.3 358.74 724.51 358.74 724.51 269.89 796.82 157.41 746.95 157.41 701.95 227.65 656.16 157.41 603.99 157.41"/><polygon class="a" points="430.27 0 239.84 124.22 325.29 136.38 359.3 216.17 430.27 0"/><path class="c" d="M168.43,746.26a5.88,5.88,0,0,1-1.64,4.3,5.72,5.72,0,0,1-4.27,1.67H141.36a5.91,5.91,0,0,1-4.32-1.67,5.76,5.76,0,0,1-1.69-4.3V724.94h7.46v20.68H161v-20l-23.21-28a9.74,9.74,0,0,1-2.41-6.39v-17a5.77,5.77,0,0,1,1.69-4.3,5.9,5.9,0,0,1,4.32-1.66h21.16a5.71,5.71,0,0,1,4.27,1.66,5.89,5.89,0,0,1,1.64,4.3v19.55H161v-18.9H142.81V692.5l23.31,28a9.58,9.58,0,0,1,2.31,6.28Z" transform="translate(-113.59 -249.75)"/><path class="c" d="M261.15,746.26a5.79,5.79,0,0,1-1.69,4.3,5.92,5.92,0,0,1-4.33,1.67H231.61a5.72,5.72,0,0,1-6-6V674.13a5.71,5.71,0,0,1,6-6h23.52a5.91,5.91,0,0,1,4.33,1.66,5.81,5.81,0,0,1,1.69,4.3Zm-7.47-.64V674.78H233.11v70.84Z" transform="translate(-113.59 -249.75)"/><path class="c" d="M345.43,752.23H318.57V668.17H326v77.45h19.39Z" transform="translate(-113.59 -249.75)"/><path class="c" d="M434.49,746.26a5.76,5.76,0,0,1-1.69,4.3,5.91,5.91,0,0,1-4.32,1.67H405.6a5.71,5.71,0,0,1-6-6V668.17h7.46v77.45H427V668.17h7.46Z" transform="translate(-113.59 -249.75)"/><path class="c" d="M520.87,674.78h-13v77.45h-7.46V674.78H487.3v-6.61h33.57Z" transform="translate(-113.59 -249.75)"/><path class="c" d="M581.52,752.23h-7.46V668.17h7.46Z" transform="translate(-113.59 -249.75)"/><path class="c" d="M675,746.26a5.76,5.76,0,0,1-1.69,4.3,5.91,5.91,0,0,1-4.32,1.67H645.5a5.72,5.72,0,0,1-6-6V674.13a5.71,5.71,0,0,1,6-6H669a5.9,5.9,0,0,1,4.32,1.66,5.77,5.77,0,0,1,1.69,4.3Zm-7.46-.64V674.78H647v70.84Z" transform="translate(-113.59 -249.75)"/><path class="c" d="M767.12,752.23H762l-22.45-61.82v61.82h-7V668.17h5.59l22,60.75V668.17h7Z" transform="translate(-113.59 -249.75)"/><path class="c" d="M857.31,746.26a5.88,5.88,0,0,1-1.64,4.3,5.73,5.73,0,0,1-4.27,1.67H830.24a5.92,5.92,0,0,1-4.33-1.67,5.76,5.76,0,0,1-1.69-4.3V724.94h7.47v20.68h18.15v-20l-23.2-28a9.75,9.75,0,0,1-2.42-6.39v-17a5.77,5.77,0,0,1,1.69-4.3,5.91,5.91,0,0,1,4.33-1.66H851.4a5.73,5.73,0,0,1,4.27,1.66,5.89,5.89,0,0,1,1.64,4.3v19.55h-7.47v-18.9H831.69V692.5l23.31,28a9.58,9.58,0,0,1,2.31,6.28Z" transform="translate(-113.59 -249.75)"/><polygon class="d" points="325.29 136.38 430.27 0 239.84 124.22 325.29 136.38"/></svg>